<?xml version="1.0" encoding="UTF-8" standalone="no"?>
<!-- Created with Inkscape (http://www.inkscape.org/) -->

<svg
   xmlns:dc="http://purl.org/dc/elements/1.1/"
   xmlns:cc="http://creativecommons.org/ns#"
   xmlns:rdf="http://www.w3.org/1999/02/22-rdf-syntax-ns#"
   xmlns:svg="http://www.w3.org/2000/svg"
   xmlns="http://www.w3.org/2000/svg"
   xmlns:sodipodi="http://sodipodi.sourceforge.net/DTD/sodipodi-0.dtd"
   xmlns:inkscape="http://www.inkscape.org/namespaces/inkscape"
   width="148.06198mm"
   height="179.97589mm"
   viewBox="0 0 148.06198 179.97589"
   version="1.1"
   id="svg8"
   inkscape:version="0.91 r13725"
   sodipodi:docname="budget-logo.svg">
  <defs
     id="defs2">
    <clipPath
       id="clipPath831"
       clipPathUnits="userSpaceOnUse">
      <path
         inkscape:connector-curvature="0"
         id="path829"
         d="M 88.921,165.721 H 508.626 V 675.889 H 88.921 Z" />
    </clipPath>
  </defs>
  <sodipodi:namedview
     id="base"
     pagecolor="#ffffff"
     bordercolor="#666666"
     borderopacity="1.0"
     inkscape:pageopacity="0.0"
     inkscape:pageshadow="2"
     inkscape:zoom="0.7"
     inkscape:cx="60.950349"
     inkscape:cy="327.60878"
     inkscape:document-units="mm"
     inkscape:current-layer="layer1"
     showgrid="false"
     fit-margin-top="0"
     fit-margin-left="0"
     fit-margin-right="0"
     fit-margin-bottom="0"
     inkscape:window-width="1584"
     inkscape:window-height="930"
     inkscape:window-x="0"
     inkscape:window-y="0"
     inkscape:window-maximized="1"
     inkscape:snap-page="false" />
  <metadata
     id="metadata5">
    <rdf:RDF>
      <cc:Work
         rdf:about="">
        <dc:format>image/svg+xml</dc:format>
        <dc:type
           rdf:resource="http://purl.org/dc/dcmitype/StillImage" />
        <dc:title />
      </cc:Work>
    </rdf:RDF>
  </metadata>
  <g
     inkscape:label="Layer 1"
     inkscape:groupmode="layer"
     id="layer1"
     transform="translate(1.0815917,-0.6369643)">
    <path
       inkscape:connector-curvature="0"
       id="path835"
       style="fill:#008885;fill-opacity:1;fill-rule:nonzero;stroke:none"
       d="m 136.60306,180.61286 0,-49.0534 c -10.95692,6.4322 -32.14299,15.34125 -65.508362,15.34125 -31.274808,0 -52.021669,-13.39568 -63.506349,-21.6796 l 0,55.39175 z" />
    <path
       inkscape:connector-curvature="0"
       id="path839"
       style="fill:#ffffff;fill-opacity:1;fill-rule:nonzero;stroke:none"
       d="m 17.551918,162.11097 1.828447,0 0,-3.5874 3.365853,0 0,3.5874 1.8288,0 0,-8.31568 -1.8288,0 0,3.19123 -3.365853,0 0,-3.19123 -1.828447,0 z m 14.511514,-6.02156 -1.653823,0 0,3.15665 c 0,1.22238 -0.384175,1.72332 -1.281288,1.72332 -0.76835,0 -1.059745,-0.4893 -1.059745,-1.47955 l 0,-3.40042 -1.653469,0 0,3.70381 c 0,1.49049 0.44203,2.48073 2.20098,2.48073 0.698853,0 1.420636,-0.32632 1.840089,-1.00153 l 0.03493,0 0,0.83855 1.572331,0 z m 3.762022,-1.80552 -1.654175,0 0,1.80552 -1.001536,0 0,1.10631 1.001536,0 0,3.55247 c 0,1.19944 0.885119,1.43192 1.89865,1.43192 0.325966,0 0.687211,-0.0113 0.966611,-0.0579 l 0,-1.29258 c -0.174625,0.0349 -0.337961,0.0466 -0.512586,0.0466 -0.5588,0 -0.6985,-0.1397 -0.6985,-0.6985 l 0,-2.98203 1.211086,0 0,-1.10631 -1.211086,0 z m 4.507088,0 -1.653822,0 0,1.80552 -1.001536,0 0,1.10631 1.001536,0 0,3.55247 c 0,1.19944 0.88512,1.43192 1.898297,1.43192 0.325967,0 0.687212,-0.0113 0.966612,-0.0579 l 0,-1.29258 c -0.174625,0.0349 -0.337609,0.0466 -0.512234,0.0466 -0.559153,0 -0.698853,-0.1397 -0.698853,-0.6985 l 0,-2.98203 1.211087,0 0,-1.10631 -1.211087,0 z m 13.544197,2.30681 c -0.221191,-1.92264 -1.758597,-2.99402 -3.587044,-2.99402 -2.573867,0 -4.087989,1.92228 -4.087989,4.39102 0,2.39925 1.514122,4.32083 4.087989,4.32083 2.03835,0 3.470628,-1.32751 3.657247,-3.40078 l -1.770591,0 c -0.1397,1.09467 -0.768703,1.86372 -1.886656,1.86372 -1.64218,0 -2.259542,-1.39735 -2.259542,-2.78377 0,-1.45556 0.617362,-2.85291 2.259542,-2.85291 0.908403,0 1.700389,0.62865 1.817158,1.45591 z m 1.595614,5.52027 1.653822,0 0,-6.02156 -1.653822,0 z m 1.654175,-8.31568 -1.653822,0 0,1.36208 1.653822,0 z m 3.808236,0.4886 -1.653822,0 0,1.80552 -1.001536,0 0,1.10631 1.001536,0 0,3.55247 c 0,1.19944 0.88512,1.43192 1.898297,1.43192 0.32632,0 0.687211,-0.0113 0.966611,-0.0579 l 0,-1.29258 c -0.174625,0.0349 -0.337961,0.0466 -0.512233,0.0466 -0.559153,0 -0.698853,-0.1397 -0.698853,-0.6985 l 0,-2.98203 1.211086,0 0,-1.10631 -1.211086,0 z m 7.896225,1.80552 -1.71203,0 -1.316214,4.12291 -0.02328,0 -1.362427,-4.12291 -1.770239,0 2.119489,5.64867 c 0.186619,0.47766 0,1.07139 -0.570795,1.1296 -0.325966,0.012 -0.651933,-0.0346 -0.966258,-0.0582 l 0,1.36278 c 0.337608,0.0349 0.675217,0.0586 1.013178,0.0586 1.140883,0 1.71203,-0.39652 2.072922,-1.36313 z m 6.615289,2.3181 1.99143,0 c 0.780698,0 1.315509,0.33725 1.315509,1.18745 0,0.86219 -0.628298,1.09502 -1.350081,1.09502 l -1.956858,0 z m -1.8288,3.70346 4.030133,0 c 1.502128,0 2.934758,-0.72249 2.934758,-2.41124 0,-1.0361 -0.512586,-1.8168 -1.525763,-2.10784 0.722488,-0.34961 1.1303,-0.91969 1.1303,-1.73532 0,-1.54904 -1.071739,-2.06128 -2.655359,-2.06128 l -3.914069,0 z m 1.8288,-6.89469 1.71203,0 c 0.652286,0 1.257653,0.16263 1.257653,0.95462 0,0.6985 -0.477661,0.99025 -1.118305,0.99025 l -1.851378,0 z m 12.252325,0.87313 -1.654175,0 0,3.15665 c 0,1.22238 -0.384175,1.72332 -1.280936,1.72332 -0.76835,0 -1.059392,-0.4893 -1.059392,-1.47955 l 0,-3.40042 -1.654881,0 0,3.70381 c 0,1.49049 0.443442,2.48073 2.201686,2.48073 0.698853,0 1.421342,-0.32632 1.840089,-1.00153 l 0.03493,0 0,0.83855 1.572684,0 z m 5.962649,6.02156 1.572331,0 0,-8.31568 -1.653469,0 0,3.02825 -0.02364,0 0.01164,0 c -0.384175,-0.59479 -1.083028,-0.89676 -1.793522,-0.89676 -1.770239,0 -2.667,1.50177 -2.667,3.12102 0,1.66546 0.885472,3.22615 2.702278,3.22615 0.76835,0 1.444272,-0.27975 1.8288,-0.93168 l 0.02258,0 z m -0.02258,-3.02824 c 0,0.99024 -0.327025,1.94486 -1.421342,1.94486 -1.024819,0 -1.455914,-0.98954 -1.455914,-1.93322 0,-0.9899 0.372533,-1.92194 1.455914,-1.92194 1.071739,0 1.421342,0.93204 1.421342,1.9103 m 9.036755,-2.99332 -1.57233,0 0,0.80327 -0.0233,0 c -0.39653,-0.6985 -1.00119,-0.9659 -1.793879,-0.9659 -1.688394,0 -2.584803,1.42028 -2.584803,2.98097 0,1.65382 0.768703,3.02824 2.573514,3.02824 0.722489,0 1.444268,-0.30268 1.805168,-0.93204 l 0.0233,0 0,0.79199 c 0.0116,0.86219 -0.40781,1.49154 -1.327503,1.49154 -0.582436,0 -1.083734,-0.20955 -1.23437,-0.82761 l -1.642886,0 c 0.08149,1.37442 1.467909,1.93392 2.655359,1.93392 2.77213,0 3.12173,-1.67745 3.12173,-2.66735 z m -2.981325,4.60057 c -1.013178,0 -1.339497,-0.94333 -1.339497,-1.80552 0,-0.89676 0.407458,-1.71203 1.339497,-1.71203 1.071735,0 1.408995,0.87419 1.408995,1.85209 0,0.86219 -0.46531,1.66546 -1.408995,1.66546 m 10.423175,-1.1878 c 0.11677,-1.85244 -0.87278,-3.5754 -2.92312,-3.5754 -1.8288,0 -3.07446,1.37371 -3.07446,3.17923 0,1.86337 1.17652,3.16794 3.07446,3.16794 1.36313,0 2.35303,-0.60607 2.81905,-2.02635 l -1.45592,0 c -0.10548,0.37183 -0.64099,0.77999 -1.30492,0.77999 -0.91969,0 -1.43228,-0.47731 -1.47885,-1.52541 z m -4.34376,-1.0481 c 0.0229,-0.46638 0.32562,-1.28165 1.37478,-1.28165 0.80327,0 1.16381,0.44274 1.31551,1.28165 z m 7.82638,-4.17019 -1.65418,0 0,1.80552 -1.00153,0 0,1.10631 1.00153,0 0,3.55247 c 0,1.19944 0.88548,1.43192 1.8983,1.43192 0.32703,0 0.68686,-0.0113 0.96732,-0.0579 l 0,-1.29258 c -0.17498,0.0349 -0.33796,0.0466 -0.51224,0.0466 -0.55915,0 -0.6992,-0.1397 -0.6992,-0.6985 l 0,-2.98203 1.21144,0 0,-1.10631 -1.21144,0 z m 9.87601,1.31692 c 0,0.60501 -0.38452,0.88477 -0.85019,1.1871 -0.31433,-0.38418 -0.65193,-0.72179 -0.65193,-1.24531 0,-0.43109 0.34889,-0.73413 0.74506,-0.73413 0.40817,0 0.75706,0.36089 0.75706,0.79234 m 0.0819,4.57694 c -0.38453,0.43074 -0.80398,0.73342 -1.39771,0.73342 -0.62865,0 -1.1878,-0.48859 -1.1878,-1.09467 0,-0.67557 0.58208,-1.1183 1.16452,-1.37407 z m 1.54869,1.93322 2.02671,0 -1.68945,-1.96815 c 0.46672,-0.58243 0.72284,-1.30422 0.80398,-2.05034 l -1.43193,0 c -0.0473,0.33796 -0.1404,0.68721 -0.30339,0.99025 l -1.07138,-1.31551 c 0.8389,-0.44344 1.47955,-1.10702 1.47955,-2.07398 0,-1.31586 -1.02517,-1.99179 -2.28283,-1.99179 -1.10631,0 -2.16641,0.74613 -2.16641,1.89936 0,0.72178 0.3489,1.22273 0.79164,1.76989 -0.97755,0.45437 -1.86302,1.24636 -1.86302,2.41053 0,1.57268 1.1878,2.49272 2.69063,2.49272 0.94333,0 1.67676,-0.33796 2.34069,-0.99024 z" />
    <path
       inkscape:connector-curvature="0"
       id="path843"
       style="fill:#ffffff;fill-opacity:1;fill-rule:nonzero;stroke:none"
       d="m 17.764996,173.60313 1.852083,0 0.651934,-1.85138 3.109383,0 0.629003,1.85138 1.89865,0 -3.109736,-8.31532 -1.875367,0 z m 4.064705,-6.26604 0.02328,0 1.048103,3.05188 -2.154767,0 z m 9.619897,6.26604 1.572331,0 0,-8.31532 -1.653822,0 0,3.02789 -0.02328,0 0.01164,0 c -0.384175,-0.59408 -1.083028,-0.89676 -1.793875,-0.89676 -1.769886,0 -2.666647,1.50248 -2.666647,3.12102 0,1.66617 0.885119,3.22651 2.701925,3.22651 0.768703,0 1.443919,-0.2794 1.828447,-0.93204 l 0.02328,0 z m -0.02328,-3.02789 c 0,0.98989 -0.325967,1.94522 -1.420989,1.94522 -1.024819,0 -1.455914,-0.99025 -1.455914,-1.93393 0,-0.9899 0.372534,-1.92123 1.455914,-1.92123 1.071739,0 1.420989,0.93133 1.420989,1.90994 m 8.909756,-2.99367 -1.642181,0 -1.269647,4.11127 -0.02328,0 -1.269294,-4.11127 -1.735314,0 2.061281,6.02156 1.840089,0 z m 1.199444,3.01695 c 0,1.90959 1.22308,3.16795 3.109736,3.16795 1.898297,0 3.121025,-1.25836 3.121025,-3.16795 0,-1.92228 -1.222728,-3.17958 -3.121025,-3.17958 -1.886656,0 -3.109736,1.2573 -3.109736,3.17958 m 1.654175,0 c 0,-0.96661 0.337255,-1.93322 1.455561,-1.93322 1.129594,0 1.467203,0.96661 1.467203,1.93322 0,0.95462 -0.337609,1.92194 -1.467203,1.92194 -1.118306,0 -1.455561,-0.96732 -1.455561,-1.92194 m 12.065,-0.89746 c -0.105128,-1.5367 -1.409348,-2.28212 -2.829984,-2.28212 -1.956858,0 -3.074811,1.38571 -3.074811,3.26143 0,1.80445 1.223081,3.0861 3.039534,3.0861 1.583972,0 2.690636,-0.87419 2.900186,-2.4691 l -1.595614,0 c -0.104775,0.73378 -0.547511,1.22309 -1.316214,1.22309 -1.036461,0 -1.374422,-1.03717 -1.374422,-1.8983 0,-0.88547 0.349602,-1.95686 1.4097,-1.95686 0.686858,0 1.1176,0.36054 1.222727,1.03576 z m 5.415491,1.57268 c 0,0.36124 -0.04657,1.38606 -1.339144,1.38606 -0.53587,0 -1.013531,-0.15169 -1.013531,-0.76905 0,-0.60466 0.46602,-0.77964 0.978606,-0.88442 0.512233,-0.0935 1.094316,-0.10548 1.374069,-0.34995 z M 58.504126,169.434 c 0.05821,-0.65264 0.465666,-0.90911 1.094316,-0.90911 0.582436,0 1.071739,0.10548 1.071739,0.81563 0,0.67557 -0.942975,0.64029 -1.956505,0.79163 -1.02482,0.14041 -2.049639,0.46637 -2.049639,1.82915 0,1.23437 0.908403,1.80517 2.049639,1.80517 0.733777,0 1.502127,-0.19826 2.026355,-0.74578 0.01164,0.19791 0.05821,0.39617 0.116417,0.58244 l 1.677105,0 c -0.151341,-0.24412 -0.20955,-0.79199 -0.20955,-1.3395 l 0,-3.13302 c 0,-1.44392 -1.443919,-1.71167 -2.643716,-1.71167 -1.351139,0 -2.73685,0.46566 -2.830336,2.01506 z m 11.518194,0.26706 c -0.104775,-1.5367 -1.409347,-2.28212 -2.829983,-2.28212 -1.956506,0 -3.074811,1.38571 -3.074811,3.26143 0,1.80445 1.22308,3.0861 3.039533,3.0861 1.584325,0 2.690636,-0.87419 2.900186,-2.4691 l -1.595261,0 c -0.105128,0.73378 -0.547511,1.22309 -1.316214,1.22309 -1.036814,0 -1.37407,-1.03717 -1.37407,-1.8983 0,-0.88547 0.34925,-1.95686 1.408995,-1.95686 0.686858,0 1.118305,0.36054 1.222728,1.03576 z m 7.150805,-2.11949 -1.71203,0 -1.315861,4.12326 -0.02328,0 -1.362427,-4.12326 -1.770592,0 2.119489,5.64903 c 0.186972,0.4773 0,1.07138 -0.570089,1.12959 -0.32632,0.0116 -0.652286,-0.0346 -0.966964,-0.0582 l 0,1.36278 c 0.337608,0.0346 0.675569,0.0579 1.013178,0.0579 1.141941,0 1.71203,-0.39547 2.073275,-1.36243 z m 4.845403,3.26143 c -0.02364,2.04928 1.700036,2.95839 3.540125,2.95839 2.259541,0 3.458986,-1.14159 3.458986,-2.66665 0,-1.88736 -1.86302,-2.27188 -2.468739,-2.42287 -2.084564,-0.53587 -2.480733,-0.61701 -2.480733,-1.25836 0,-0.6985 0.675922,-0.94262 1.258005,-0.94262 0.873478,0 1.583972,0.25611 1.642181,1.25765 l 1.769886,0 c 0,-1.92158 -1.595967,-2.679 -3.330575,-2.679 -1.502481,0 -3.109736,0.81563 -3.109736,2.51531 0,1.56139 1.246364,2.03835 2.480733,2.36467 1.222728,0.32632 2.468739,0.47766 2.468739,1.37442 0,0.8502 -0.977547,1.03611 -1.617839,1.03611 -0.979311,0 -1.840441,-0.43039 -1.840441,-1.53705 z m 14.313605,0.15134 c 0.116417,-1.85173 -0.87383,-3.5754 -2.923822,-3.5754 -1.827389,0 -3.074105,1.37407 -3.074105,3.17958 0,1.86373 1.175808,3.16795 3.074105,3.16795 1.363133,0 2.353028,-0.60572 2.818694,-2.02671 l -1.455561,0 c -0.104422,0.37253 -0.640644,0.7807 -1.304219,0.7807 -0.920397,0 -1.432983,-0.47802 -1.47955,-1.52612 z m -4.344458,-1.0481 c 0.02399,-0.46602 0.325967,-1.28094 1.374422,-1.28094 0.803275,0 1.164872,0.44203 1.315508,1.28094 z m 6.020505,3.65689 1.654175,0 0,-2.71321 c 0,-1.05975 0.419805,-1.93393 1.630185,-1.93393 0.19862,0 0.44274,0.0236 0.59443,0.0589 l 0,-1.53811 c -0.10477,-0.0349 -0.24518,-0.0579 -0.36124,-0.0579 -0.80292,0 -1.618547,0.52422 -1.921583,1.28128 l -0.02399,0 0,-1.11865 -1.571978,0 z m 10.5985,-6.02156 -1.64182,0 -1.27,4.11127 -0.0229,0 -1.26929,-4.11127 -1.73567,0 2.06128,6.02156 1.84045,0 z m 1.43263,6.02156 1.65383,0 0,-6.02156 -1.65383,0 z m 1.65383,-8.31532 -1.65383,0 0,1.36242 1.65383,0 z m 7.7216,4.41325 c -0.10478,-1.5367 -1.409,-2.28212 -2.82999,-2.28212 -1.9565,0 -3.07446,1.38571 -3.07446,3.26143 0,1.80445 1.22273,3.0861 3.03954,3.0861 1.58362,0 2.69028,-0.87419 2.89983,-2.4691 l -1.59526,0 c -0.10513,0.73378 -0.54786,1.22309 -1.31657,1.22309 -1.03646,0 -1.37371,-1.03717 -1.37371,-1.8983 0,-0.88547 0.34889,-1.95686 1.40864,-1.95686 0.68791,0 1.11866,0.36054 1.22343,1.03576 z m 7.3727,1.29328 c 0.11606,-1.85173 -0.87419,-3.5754 -2.92418,-3.5754 -1.82774,0 -3.0741,1.37407 -3.0741,3.17958 0,1.86373 1.17651,3.16795 3.0741,3.16795 1.36349,0 2.35303,-0.60572 2.8194,-2.02671 l -1.45591,0 c -0.10478,0.37253 -0.64135,0.7807 -1.30457,0.7807 -0.9204,0 -1.43299,-0.47802 -1.4792,-1.52612 z m -4.34446,-1.0481 c 0.0236,-0.46602 0.32632,-1.28094 1.37407,-1.28094 0.80398,0 1.16487,0.44203 1.31621,1.28094 z" />
    <path
       style="fill:#9cb866;fill-opacity:1;fill-rule:nonzero;stroke:none"
       d="M 261.61914 168.52539 C 217.7629 168.52539 182.21094 205.5332 182.21094 251.18945 C 182.21094 296.8457 217.7629 333.85547 261.61914 333.85547 C 305.47414 333.85547 341.02539 296.8457 341.02539 251.18945 C 341.02539 205.5332 305.47414 168.52539 261.61914 168.52539 z M 252.34961 188.59375 L 266.87305 188.59375 L 266.87305 205.20898 C 269.55179 206.56399 271.59125 208.36789 273.09375 210.52539 L 273.09375 203.88477 L 287.61914 203.88477 L 287.61914 235.30469 L 273.09375 235.30469 L 273.09375 230.01367 C 272.52375 225.83367 270.33461 218.44781 261.97461 216.47656 C 248.89211 213.38906 245.71289 221.32711 245.71289 226.06836 C 245.71289 233.39211 249.15234 235.62156 258.74609 239.10156 C 271.07859 243.58031 279.1057 247.8557 282.4707 251.4082 C 290.8032 258.63195 290.4982 274.42086 286.5957 282.59961 C 282.6082 290.95836 276.66555 295.79242 266.87305 296.63867 L 266.87305 310.61719 L 252.34961 310.61719 L 252.34961 295.18359 C 247.74711 293.65484 244.53516 291.10562 242.41016 287.82812 L 242.41016 295.32812 L 227.88672 295.32812 L 227.88672 263.90625 L 242.41016 263.90625 L 242.41016 264.28906 C 242.41016 264.28906 242.37719 278.50664 254.49219 282.36914 C 267.79094 286.61164 272.22461 276.52086 272.22461 271.47461 C 272.22461 263.67711 263.22594 258.80055 257.58594 256.68555 C 251.94594 254.56805 242.79328 251.29523 234.89453 245.05273 C 226.90703 238.26524 227.19696 223.4325 230.93945 215.75 C 235.09446 207.2175 241.43086 202.56938 252.34961 202.42188 L 252.34961 188.59375 z "
       transform="matrix(0.28222224,0,0,0.28222222,-1.0816003,0.6369643)"
       id="path847" />
    <path
       inkscape:connector-curvature="0"
       id="path855"
       style="fill:#9cb866;fill-opacity:1;fill-rule:nonzero;stroke:none"
       d="m 84.009888,46.703744 -2.330097,-14.24058 c 0,0 -19.895961,2.172052 -36.200644,15.927916 C 28.390592,62.808755 22.45687,79.864502 22.45687,79.864502 l 45.889685,27.809468 c 0,0 3.085042,-6.45124 6.860822,-8.607774 1.719086,-0.982839 -18.7706,3.019424 -27.076399,-16.397464 -7.458075,-17.433925 3.57505,-29.088996 7.766755,-32.685919 3.494969,-2.998611 14.131219,-9.600847 28.112155,-3.279069" />
    <path
       inkscape:connector-curvature="0"
       id="path859"
       style="fill:#008885;fill-opacity:1;fill-rule:nonzero;stroke:none"
       d="m 28.168483,127.5336 1.545872,0.87842 4.480631,-7.88247 -1.54552,-0.87877 z m 3.529189,2.06657 1.694039,0.7814 2.767541,-6.00392 0.861836,7.67609 1.676753,0.77364 3.968044,-8.60954 -1.6764,-0.77223 -2.663824,5.77815 -0.869245,-7.40728 -1.789994,-0.82444 z m 11.288183,-3.84598 2.616905,0.87947 -2.597502,7.72795 1.830211,0.6156 2.597855,-7.72865 2.628195,0.88406 0.53975,-1.60444 -7.075664,-2.37842 z m 10.223852,1.23754 c -0.52705,0.0977 -1.01353,0.29704 -1.459794,0.59796 -0.446969,0.30198 -0.806097,0.6537 -1.0795,1.05622 -0.502003,0.72531 -0.863953,1.58961 -1.085144,2.59291 -0.367595,1.66759 -0.245534,3.02402 0.366183,4.07 0.612069,1.04493 1.569861,1.71239 2.873022,1.99919 1.290108,0.2847 2.42182,0.0868 3.394781,-0.59266 0.972608,-0.67981 1.642533,-1.85138 2.009422,-3.51508 0.27058,-1.22555 0.294569,-2.25848 0.07091,-3.09951 -0.223661,-0.84031 -0.662164,-1.54446 -1.314097,-2.11067 -0.498122,-0.43321 -1.209675,-0.75247 -2.136069,-0.95638 -0.565503,-0.12488 -1.112309,-0.13899 -1.639712,-0.042 m 2.858559,2.73826 c 0.407105,0.66076 0.463197,1.65982 0.167922,2.99791 -0.264231,1.19486 -0.670631,2.00801 -1.219553,2.43805 -0.548922,0.42897 -1.148997,0.5722 -1.80093,0.42827 -0.685448,-0.15134 -1.190273,-0.5394 -1.513064,-1.16346 -0.323145,-0.62442 -0.351367,-1.53882 -0.08537,-2.74355 0.270227,-1.2252 0.681213,-2.05705 1.231547,-2.49238 0.54998,-0.43674 1.157111,-0.58067 1.821744,-0.43392 0.617714,0.13582 1.083028,0.45861 1.397706,0.96908 m 7.182555,6.76381 c 0.226483,0.51224 0.457553,0.9144 0.69215,1.20686 0.36195,0.4572 0.814917,0.83185 1.360311,1.12183 0.545042,0.29104 1.199092,0.46002 1.961797,0.508 0.80645,0.0515 1.53035,-0.0575 2.1717,-0.3242 0.640998,-0.266 1.137709,-0.67416 1.489428,-1.22203 0.352072,-0.54892 0.545747,-1.10525 0.581025,-1.66899 0.03351,-0.53481 -0.05574,-1.06151 -0.269522,-1.58256 -0.213431,-0.5214 -0.556683,-0.95497 -1.029758,-1.30245 -0.473428,-0.34643 -1.1811,-0.66887 -2.123723,-0.96873 -0.941916,-0.29704 -1.525058,-0.56656 -1.749425,-0.80469 -0.228247,-0.23848 -0.333022,-0.51364 -0.313972,-0.82444 0.0247,-0.38911 0.192617,-0.7112 0.504472,-0.96732 0.31115,-0.25576 0.711906,-0.36865 1.202973,-0.33725 0.398286,0.0254 0.753886,0.14922 1.066447,0.37429 0.312914,0.22437 0.610658,0.56762 0.893586,1.03012 l 1.884539,-0.63465 c -0.208139,-0.41381 -0.42157,-0.74154 -0.640292,-0.98496 -0.337961,-0.36759 -0.758472,-0.67733 -1.262239,-0.93204 -0.503414,-0.25364 -1.08585,-0.40181 -1.746603,-0.44344 -1.160991,-0.0734 -2.094088,0.17639 -2.798233,0.7493 -0.70485,0.57221 -1.086555,1.32786 -1.146175,2.26519 -0.05539,0.87524 0.231422,1.62913 0.860072,2.26448 0.504473,0.50553 1.366309,0.95991 2.584803,1.36313 0.893233,0.30057 1.462617,0.5902 1.708503,0.86889 0.240947,0.27835 0.350308,0.5902 0.328436,0.93592 -0.02434,0.39335 -0.208844,0.72426 -0.552803,0.99307 -0.344311,0.26847 -0.807508,0.38418 -1.390297,0.34678 -0.486128,-0.0303 -0.900642,-0.16827 -1.243189,-0.41416 -0.343253,-0.24588 -0.681566,-0.66534 -1.014941,-1.25765 z m 8.923867,2.89984 2.302933,-0.0346 0.859014,-2.80705 3.806119,-0.0575 0.945092,2.77989 2.303639,-0.0339 -4.054828,-11.84698 -2.484261,0.037 z m 6.380338,-4.62527 -2.70898,0.0406 1.302455,-4.17548 z m 7.786511,4.10633 2.340681,-0.22966 2.535766,-12.67283 -2.320925,0.22824 -1.766711,8.71573 -3.396544,-8.20914 -2.356908,0.23178 z m 9.136945,-1.01635 8.434568,-1.67217 -0.43004,-2.17029 -5.960887,1.1811 -0.709436,-3.58422 3.633263,-0.72002 -0.36972,-1.86584 -3.633607,0.72002 -0.549628,-2.77072 5.960535,-1.18145 -0.43357,-2.18581 -8.433853,1.67111 z m 12.090748,-2.54706 2.48885,-0.82303 -1.67569,-5.06871 2.26977,-0.75036 3.7906,4.36951 2.45674,-0.81245 -4.09575,-4.78014 c 0.75177,-0.63888 1.22202,-1.26224 1.41182,-1.86937 0.18909,-0.60819 0.1591,-1.2887 -0.09,-2.04117 -0.27093,-0.81844 -0.70591,-1.4792 -1.30528,-1.98296 -0.59866,-0.50271 -1.29328,-0.77506 -2.08492,-0.81845 -0.79128,-0.043 -2.10149,0.23707 -3.931,0.84243 l -3.40395,1.12537 z m 1.03329,-11.88826 c 0.82515,-0.27269 1.47461,-0.31503 1.95157,-0.12911 0.47519,0.18732 0.79163,0.51399 0.94438,0.98107 0.16228,0.48895 0.12101,0.9271 -0.12312,1.31163 -0.37465,0.58138 -0.92392,0.99201 -1.64959,1.2319 l -1.98649,0.65617 -1.12254,-3.39514 z m 9.13306,5.45959 c 0.52988,0.40182 1.00225,0.68615 1.4157,0.85514 0.63923,0.26564 1.32609,0.39228 2.06058,0.37923 0.73377,-0.0127 1.51094,-0.21413 2.3308,-0.60466 0.86748,-0.4131 1.55716,-0.94333 2.0701,-1.59103 0.51117,-0.64699 0.79128,-1.35749 0.84067,-2.13042 0.049,-0.77294 -0.0709,-1.46227 -0.35984,-2.06834 -0.27375,-0.57467 -0.67098,-1.07138 -1.19309,-1.48872 -0.52317,-0.41839 -1.13065,-0.67028 -1.8221,-0.75777 -0.69215,-0.0864 -1.61396,-0.0138 -2.76507,0.22014 -1.15111,0.23354 -1.91205,0.29104 -2.28282,0.17321 -0.37571,-0.11642 -0.64277,-0.34149 -0.80187,-0.67592 -0.19861,-0.41769 -0.21025,-0.84914 -0.0349,-1.29611 0.17603,-0.4452 0.52705,-0.79339 1.0548,-1.04457 0.42863,-0.20391 0.87031,-0.27976 1.32468,-0.22684 0.45438,0.0533 0.96238,0.23777 1.52259,0.55386 l 1.59068,-1.74766 c -0.45438,-0.30868 -0.86537,-0.52634 -1.23296,-0.65264 -0.56374,-0.18697 -1.17934,-0.26634 -1.84962,-0.23953 -0.66921,0.0272 -1.3596,0.20955 -2.0701,0.54786 -1.24918,0.59478 -2.07362,1.39206 -2.47508,2.3936 -0.40182,1.00224 -0.36125,2.00695 0.11782,3.01554 0.44803,0.94086 1.1811,1.55928 2.20063,1.85597 0.81598,0.23353 1.97273,0.20743 3.47239,-0.0759 1.10138,-0.20461 1.8602,-0.23213 2.27648,-0.0847 0.41134,0.15029 0.7052,0.41134 0.88124,0.78246 0.20249,0.42298 0.20143,0.87348 0,1.35114 -0.20214,0.47802 -0.61666,0.86501 -1.2439,1.16346 -0.52176,0.24871 -1.03364,0.34467 -1.53141,0.28681 -0.49918,-0.0575 -1.09149,-0.29704 -1.78047,-0.71967 z" />
    <path
       inkscape:connector-curvature="0"
       id="path863"
       style="fill:#68b1b2;fill-opacity:1;fill-rule:nonzero;stroke:none"
       d="m 19.857392,104.52275 0.926042,0.82621 1.363133,-0.79975 1.529292,1.36454 -0.638881,1.44604 0.925689,0.82656 2.711097,-6.17326 -0.998361,-0.89112 z m 4.215342,0.49248 -1.089025,-0.9712 2.03835,-1.18039 z m 0.606425,3.75355 1.048455,0.7807 2.765072,-3.71404 -0.519994,5.38515 1.037166,0.77293 3.965575,-5.32659 -1.037166,-0.77187 -2.662061,3.57505 0.475897,-5.20242 -1.106664,-0.82409 z m 5.679369,4.09681 1.9939,1.15958 c 0.366536,0.21379 0.747183,0.3616 1.14053,0.44521 0.3937,0.0832 0.745773,0.097 1.054806,0.0413 0.431447,-0.078 0.865364,-0.2801 1.301397,-0.60325 0.434975,-0.32385 0.809272,-0.75494 1.121481,-1.29258 0.314325,-0.53975 0.49918,-1.10313 0.554213,-1.69051 0.05574,-0.58737 -0.04798,-1.12571 -0.309386,-1.61678 -0.262113,-0.49071 -0.652991,-0.88688 -1.17228,-1.18851 l -2.186164,-1.27141 z m 4.6863,-3.96945 c 0.529519,0.30832 0.862541,0.73413 0.998361,1.27882 0.136878,0.54398 0.03563,1.10666 -0.303036,1.6891 -0.248356,0.42721 -0.567267,0.76976 -0.956028,1.02799 -0.270933,0.18274 -0.56515,0.2861 -0.88265,0.31044 -0.3175,0.0243 -0.621594,-0.0483 -0.912636,-0.21731 l -0.818092,-0.47554 2.295878,-3.94935 z m 4.377266,8.77922 2.958042,1.1744 c 0.5334,0.21237 1.008239,0.29775 1.424869,0.25576 0.416278,-0.0406 0.761295,-0.17356 1.032934,-0.39546 0.271286,-0.22331 0.467783,-0.48683 0.588786,-0.79128 0.103716,-0.26211 0.141816,-0.54151 0.114653,-0.83996 -0.02681,-0.29951 -0.121356,-0.57962 -0.28187,-0.83997 -0.115005,-0.18768 -0.311503,-0.39123 -0.587375,-0.6103 0.417336,0.0169 0.759531,-0.0339 1.026583,-0.1517 0.399698,-0.17744 0.683331,-0.47731 0.851253,-0.89852 0.222603,-0.56268 0.156634,-1.08762 -0.199672,-1.57516 -0.24765,-0.33901 -0.712258,-0.64417 -1.392061,-0.91475 l -2.865614,-1.137 z m 4.95547,-4.63585 c 0.357364,0.14076 0.59055,0.31891 0.699205,0.53164 0.109009,0.21272 0.116417,0.43815 0.02187,0.67521 -0.09525,0.24025 -0.23883,0.39159 -0.430388,0.45544 -0.296687,0.0991 -0.596195,0.0882 -0.89782,-0.031 l -1.410758,-0.56057 0.642055,-1.61748 z m -1.093611,2.63843 c 0.404283,0.16016 0.674863,0.37641 0.810683,0.6477 0.136878,0.27199 0.148519,0.54962 0.03563,0.83326 -0.121708,0.30727 -0.33655,0.51011 -0.643113,0.60748 -0.306212,0.0967 -0.733778,0.0367 -1.281642,-0.18097 l -1.059039,-0.42052 0.800806,-2.01824 z m 3.317875,1.94909 c -0.148167,0.53199 -0.19297,0.97614 -0.132998,1.33244 0.05927,0.35631 0.17145,0.66711 0.33655,0.93169 0.119592,0.18909 0.286809,0.3623 0.501298,0.51788 0.406047,0.2921 0.869597,0.51153 1.392766,0.65758 0.907345,0.25329 1.661231,0.21307 2.261306,-0.1196 0.600075,-0.33372 1.020233,-0.93027 1.260475,-1.7914 l 1.258711,-4.51132 -1.397353,-0.38982 -1.202267,4.30812 c -0.104069,0.37253 -0.253647,0.66216 -0.449086,0.86924 -0.195791,0.20744 -0.413808,0.33514 -0.656519,0.38383 -0.242359,0.048 -0.500239,0.0339 -0.773642,-0.0427 -0.427567,-0.11818 -0.728133,-0.34749 -0.903111,-0.68404 -0.173919,-0.33725 -0.186619,-0.7747 -0.03598,-1.31303 l 1.202619,-4.30813 -1.393472,-0.38911 z m 6.568722,4.44641 2.42323,0.41487 c 0.445911,0.0762 0.881239,0.0825 1.305278,0.0187 0.423686,-0.0635 0.779639,-0.18098 1.068564,-0.35102 0.401461,-0.23988 0.75953,-0.60289 1.07315,-1.08832 0.314325,-0.48612 0.52705,-1.05515 0.63888,-1.70815 0.112184,-0.65687 0.08643,-1.28763 -0.07655,-1.89441 -0.163688,-0.60713 -0.467783,-1.10667 -0.912988,-1.49895 -0.444148,-0.39265 -0.982134,-0.64347 -1.612548,-0.75036 l -2.657122,-0.45438 z m 3.199341,-5.70935 c 0.643114,0.10936 1.134886,0.41098 1.4732,0.90311 0.339372,0.49212 0.448381,1.09255 0.327378,1.80022 -0.08855,0.51859 -0.279047,0.97967 -0.570794,1.38219 -0.202848,0.28434 -0.457906,0.49671 -0.766234,0.63994 -0.307622,0.14146 -0.638528,0.18274 -0.992364,0.12276 l -0.994127,-0.17039 0.820208,-4.79813 z m 9.113308,7.31767 1.184275,0.096 0.309386,-3.82622 -3.141133,-0.254 -0.09031,1.12007 1.956858,0.15839 c -0.0762,0.25012 -0.158397,0.44803 -0.247297,0.59337 -0.08925,0.145 -0.215547,0.28787 -0.379236,0.42651 -0.164394,0.14041 -0.373239,0.25153 -0.628297,0.33655 -0.254353,0.0847 -0.508706,0.11642 -0.763411,0.0956 -0.339373,-0.0272 -0.649464,-0.14782 -0.930981,-0.36054 -0.282222,-0.21308 -0.4826,-0.50518 -0.604308,-0.8763 -0.12065,-0.37148 -0.153106,-0.90064 -0.09807,-1.58891 0.07973,-0.98143 0.316441,-1.64607 0.710494,-1.9932 0.394053,-0.34784 0.873478,-0.49847 1.437922,-0.45226 0.475897,0.0378 0.852664,0.21273 1.129242,0.52423 0.192264,0.21872 0.339725,0.53622 0.440267,0.95144 l 1.201913,-0.30621 c -0.08043,-0.43039 -0.193675,-0.77188 -0.340783,-1.0227 -0.227542,-0.39335 -0.543983,-0.71332 -0.948972,-0.96309 -0.405342,-0.24941 -0.885472,-0.39687 -1.439333,-0.44132 -0.606778,-0.049 -1.187803,0.0434 -1.743781,0.27799 -0.555625,0.23424 -1.010355,0.63076 -1.364544,1.19168 -0.353484,0.56056 -0.569384,1.32397 -0.6477,2.28917 -0.07514,0.92675 0.01199,1.6697 0.259997,2.22991 0.249061,0.56057 0.593019,0.98319 1.033286,1.26789 0.439914,0.28469 0.910519,0.44767 1.412522,0.48824 0.490008,0.0395 0.957086,-0.0349 1.402997,-0.22613 0.319264,-0.13159 0.640292,-0.3489 0.963084,-0.65052 z m 2.700514,0.15593 5.220758,0.0325 0.0081,-1.34373 -3.68935,-0.0222 0.01341,-2.21862 2.248958,0.0137 0.0071,-1.15464 -2.248959,-0.0138 0.01023,-1.7152 3.688997,0.0226 0.0081,-1.35326 -5.220405,-0.0318 z m 5.693481,-6.58495 2.243666,-0.12524 0.368653,6.62622 1.568803,-0.0871 -0.369006,-6.62623 2.253897,-0.12559 -0.07585,-1.37512 -6.066719,0.33796 z m 7.793919,6.16232 5.61975,-0.59584 -0.153106,-1.44533 -3.971219,0.42051 -0.253295,-2.38796 2.421114,-0.25647 -0.132291,-1.24354 -2.420761,0.25683 -0.196145,-1.84539 3.970514,-0.42086 -0.154164,-1.45627 -5.618692,0.59549 z m 7.178322,-0.83503 1.717322,-0.31009 -0.631472,-3.49638 1.564922,-0.28293 2.090561,3.23286 1.695097,-0.30657 -2.25425,-3.53201 c 0.555625,-0.34995 0.92322,-0.71755 1.105253,-1.10066 0.180622,-0.38277 0.225072,-0.83326 0.130175,-1.35326 -0.1016,-0.5648 -0.326672,-1.03999 -0.674511,-1.42804 -0.347839,-0.38665 -0.779992,-0.63077 -1.297164,-0.73308 -0.517878,-0.10265 -1.407936,-0.0395 -2.669822,0.18839 l -2.347736,0.42439 z m 1.789289,-7.73782 c 0.56903,-0.10266 1.001183,-0.0698 1.297516,0.0974 0.295981,0.16792 0.474134,0.41275 0.531989,0.73484 0.06068,0.33655 -0.0071,0.62124 -0.204258,0.85196 -0.300214,0.34889 -0.701322,0.56726 -1.201914,0.65828 l -1.369483,0.24765 -0.423334,-2.34244 z m 5.295547,4.44641 c 0.312914,0.32279 0.599369,0.56091 0.857955,0.71614 0.399698,0.24341 0.845962,0.39863 1.337734,0.46531 0.491419,0.067 1.031522,0.0123 1.61925,-0.1651 0.62124,-0.18591 1.137,-0.4692 1.54587,-0.84914 0.40852,-0.37994 0.66922,-0.82585 0.7807,-1.33667 0.11218,-0.51118 0.10266,-0.98496 -0.0279,-1.41958 -0.12347,-0.41134 -0.33867,-0.78387 -0.64488,-1.11654 -0.30656,-0.33338 -0.6858,-0.56409 -1.13876,-0.69356 -0.453677,-0.12912 -1.076683,-0.17463 -1.869727,-0.13653 -0.793044,0.0374 -1.307394,-0.002 -1.542697,-0.11888 -0.239183,-0.11571 -0.3937,-0.29422 -0.466725,-0.53411 -0.08925,-0.29951 -0.05292,-0.58879 0.109714,-0.86924 0.162983,-0.2794 0.434269,-0.4759 0.812094,-0.5895 0.307622,-0.0924 0.610306,-0.0977 0.90805,-0.0155 0.298803,0.0826 0.61842,0.25788 0.960967,0.5267 l 1.242134,-1.00365 c -0.27164,-0.25365 -0.524584,-0.44062 -0.756712,-0.56304 -0.357717,-0.18274 -0.760942,-0.29986 -1.211086,-0.34995 -0.450497,-0.0508 -0.929922,0 -1.439333,0.15346 -0.89535,0.26846 -1.528586,0.71684 -1.900061,1.34479 -0.370064,0.62794 -0.44697,1.30386 -0.229659,2.02635 0.202495,0.67416 0.62865,1.16276 1.279172,1.46509 0.521053,0.24024 1.296106,0.34184 2.327628,0.30621 0.756003,-0.0226 1.26612,0.0363 1.529641,0.1778 0.25894,0.14252 0.42828,0.34678 0.50871,0.61277 0.0903,0.30374 0.0441,0.60396 -0.14005,0.90311 -0.18415,0.2974 -0.500595,0.51471 -0.950387,0.64912 -0.373944,0.11253 -0.724958,0.12417 -1.052336,0.0342 -0.326672,-0.0896 -0.6985,-0.31079 -1.115131,-0.66322 z" />
    <path
       inkscape:connector-curvature="0"
       id="path867"
       style="fill:#008885;fill-opacity:1;fill-rule:nonzero;stroke:none"
       d="m 26.031497,37.963357 1.455208,-0.973314 -4.963936,-7.423502 -1.455208,0.973313 z m 3.338689,-2.238375 1.591028,-0.903111 -3.201106,-5.637742 6.608939,3.703109 1.574094,-0.893939 -4.589639,-8.084256 -1.574447,0.894645 3.080809,5.425722 -6.398331,-3.5433 -1.68028,0.954617 z m 3.848805,-11.150247 2.462389,-1.098903 3.245908,7.272514 1.721909,-0.769408 -3.245909,-7.271103 2.474031,-1.104547 -0.673806,-1.509536 -6.657974,2.972153 z m 8.792281,-5.741105 c -0.406753,0.349955 -0.726017,0.767291 -0.95885,1.253419 -0.233539,0.485422 -0.365831,0.971197 -0.398286,1.456972 -0.06703,0.879475 0.0568,1.807986 0.372533,2.785534 0.524228,1.624894 1.314097,2.73438 2.370314,3.328105 1.056216,0.593019 2.219677,0.684742 3.49003,0.275519 1.256947,-0.406047 2.133953,-1.147586 2.630664,-2.226027 0.496006,-1.077031 0.4826,-2.427111 -0.03986,-4.04742 -0.385586,-1.195564 -0.886883,-2.099027 -1.504244,-2.711802 -0.617361,-0.613128 -1.350434,-0.999067 -2.200275,-1.158875 -0.648053,-0.122767 -1.423811,-0.0381 -2.325864,0.252589 -0.551744,0.1778 -1.030464,0.441677 -1.436158,0.791986 m 3.849158,0.920044 c 0.684742,0.365125 1.237544,1.199092 1.658055,2.502958 0.376062,1.165225 0.435328,2.072217 0.178506,2.72027 -0.256822,0.6477 -0.702381,1.074208 -1.337381,1.278819 -0.668866,0.215547 -1.299986,0.135114 -1.894416,-0.240594 -0.593725,-0.376061 -1.080206,-1.150409 -1.458736,-2.324453 -0.384881,-1.194858 -0.450497,-2.119136 -0.195439,-2.773186 0.254705,-0.654403 0.706261,-1.086203 1.353255,-1.295047 0.602192,-0.194028 1.167342,-0.150284 1.696156,0.131233 m 11.602508,5.276144 4.849636,-0.590197 c 0.873831,-0.106539 1.576211,-0.340783 2.107847,-0.702733 0.530578,-0.361597 0.897114,-0.793397 1.100314,-1.292931 0.202142,-0.500239 0.272697,-0.999772 0.211667,-1.498952 -0.05186,-0.427567 -0.206375,-0.832909 -0.461786,-1.216025 -0.25647,-0.383117 -0.589139,-0.691445 -0.997656,-0.924278 -0.293511,-0.169333 -0.706614,-0.299156 -1.239308,-0.390172 0.574675,-0.285045 0.998361,-0.603956 1.272822,-0.959556 0.407458,-0.532342 0.569736,-1.143705 0.485422,-1.835855 -0.112183,-0.922161 -0.587022,-1.58115 -1.424869,-1.976261 -0.584553,-0.274814 -1.433689,-0.344664 -2.548114,-0.208845 l -4.697942,0.5715 z m 3.271661,-9.889066 c 0.585964,-0.07126 1.030464,-0.0035 1.332794,0.202847 0.303037,0.207786 0.478367,0.505178 0.526345,0.894645 0.04762,0.3937 -0.03457,0.703086 -0.245533,0.928863 -0.327731,0.35172 -0.73907,0.557742 -1.233664,0.61842 L 58.80173,18.066691 58.479291,15.41486 Z m 0.464256,4.35998 c 0.662869,-0.08114 1.186391,0.01164 1.569508,0.276931 0.383117,0.265289 0.60325,0.630767 0.659342,1.096433 0.06209,0.504825 -0.07832,0.935214 -0.420512,1.290814 -0.341488,0.3556 -0.961672,0.589139 -1.859491,0.697795 l -1.736725,0.211313 -0.402167,-3.306586 z m 6.085416,0.521759 c 0.0011,0.836789 0.117475,1.502833 0.350308,1.998839 0.233187,0.4953 0.524228,0.902405 0.873125,1.222022 0.251178,0.226836 0.566209,0.410986 0.944034,0.54998 0.711552,0.260703 1.478139,0.390173 2.301169,0.389467 1.427692,-0.0018 2.510367,-0.3683 3.250142,-1.100314 0.739422,-0.730955 1.108075,-1.774119 1.107016,-3.128786 l -0.0088,-7.098947 -2.199569,0.0028 0.0088,6.778625 c 0,0.585258 -0.09913,1.069975 -0.300214,1.452386 -0.200025,0.382411 -0.467078,0.658283 -0.8001,0.828322 -0.334433,0.169334 -0.716139,0.255059 -1.14688,0.255764 -0.672748,7.06e-4 -1.205089,-0.208844 -1.597378,-0.629708 -0.392642,-0.420158 -0.589139,-1.0541 -0.590197,-1.900767 l -0.0081,-6.779683 -2.192161,0.0028 z m 10.556875,4.161014 3.821289,0.508 c 0.703086,0.09349 1.385005,0.07796 2.045758,-0.04586 0.660753,-0.12453 1.212144,-0.328788 1.653822,-0.612422 0.615597,-0.398991 1.154995,-0.988483 1.618897,-1.767769 0.464256,-0.778934 0.764823,-1.683809 0.901348,-2.71392 0.137583,-1.034697 0.06103,-2.022827 -0.231423,-2.963686 C 87.359443,15.64593 86.854618,14.880755 86.135304,14.291969 85.41599,13.703183 84.55874,13.342291 83.563907,13.210352 l -4.189942,-0.557036 z m 4.681008,-9.133064 c 1.014236,0.134761 1.801636,0.578908 2.361494,1.329972 0.559506,0.751769 0.765528,1.685572 0.617009,2.801056 -0.109009,0.818797 -0.379942,1.552222 -0.813506,2.200627 -0.301625,0.456142 -0.688269,0.803628 -1.163108,1.045281 -0.474839,0.240947 -0.989894,0.32385 -1.547989,0.250472 l -1.567392,-0.208139 1.005064,-7.56673 z m 13.412964,12.902494 1.844675,0.530225 1.713088,-5.961239 -4.893027,-1.40723 -0.502356,1.74625 3.048706,0.8763 c -0.199672,0.371827 -0.394053,0.658636 -0.581731,0.86113 -0.186619,0.201789 -0.432505,0.386645 -0.737658,0.554567 -0.303742,0.16898 -0.670631,0.279047 -1.101372,0.330905 -0.431095,0.05221 -0.843845,0.02187 -1.240014,-0.09172 -0.528814,-0.1524 -0.982133,-0.441325 -1.3589,-0.869597 -0.378178,-0.427919 -0.60325,-0.955322 -0.676628,-1.580797 -0.07338,-0.626534 0.04445,-1.47567 0.352778,-2.548114 0.439914,-1.529644 1.026936,-2.506486 1.76283,-2.930172 0.735189,-0.424039 1.541992,-0.510117 2.42182,-0.257528 0.741891,0.213783 1.282347,0.611364 1.621366,1.193094 0.234598,0.408164 0.364773,0.957087 0.392289,1.647825 L 100.003,19.945938 c 0.0106,-0.706967 -0.06103,-1.283406 -0.212727,-1.728964 -0.23495,-0.694267 -0.633589,-1.304219 -1.195211,-1.829505 -0.561269,-0.523875 -1.274233,-0.91052 -2.138186,-1.158875 -0.945092,-0.271639 -1.895475,-0.310445 -2.850797,-0.118534 -0.955322,0.194028 -1.801989,0.677686 -2.542117,1.452386 -0.74048,0.7747 -1.326797,1.914173 -1.758597,3.41877 -0.414867,1.443214 -0.515408,2.648655 -0.301625,3.615619 0.215194,0.966258 0.625475,1.745545 1.231194,2.337506 0.605014,0.592666 1.298575,1.00083 2.081742,1.225902 0.762353,0.219781 1.52647,0.249414 2.293408,0.09031 0.547864,-0.106891 1.125714,-0.347838 1.734961,-0.723194 z m 3.443111,1.271411 7.479951,3.205339 0.82514,-1.92405 -5.28531,-2.265539 1.36207,-3.178528 3.22227,1.381478 0.70909,-1.655233 -3.22228,-1.380772 1.05305,-2.456745 5.28567,2.265539 0.83079,-1.939219 -7.47889,-3.206397 z m 12.938481,-5.404203 2.98908,1.756834 -5.18689,8.827558 2.09091,1.228372 5.18654,-8.828264 3.00249,1.764242 1.07739,-1.832328 -8.08214,-4.748389 z m 3.74226,14.2875 6.86929,5.169606 1.33068,-1.76777 -4.85528,-3.653366 2.19851,-2.919589 2.95945,2.227439 1.14336,-1.52012 -2.95946,-2.226733 1.69792,-2.257072 4.85493,3.653366 1.3402,-1.781527 -6.86964,-5.169253 z m 7.81897,6.15315 1.85737,1.849614 3.76697,-3.782131 1.69439,1.687689 -2.18969,5.353756 1.83268,1.825977 2.41864,-5.811308 c 0.90876,0.383117 1.67746,0.521406 2.30576,0.415925 0.62723,-0.105128 1.22131,-0.439208 1.78117,-1.00083 0.60784,-0.610659 1.00118,-1.297164 1.1804,-2.058811 0.17815,-0.761295 0.1083,-1.504598 -0.20991,-2.230262 -0.31926,-0.726016 -1.16028,-1.768827 -2.52624,-3.12808 l -2.54,-2.530475 z m 11.07546,-4.440414 c 0.61559,0.612775 0.94721,1.173692 0.99518,1.683103 0.0473,0.509058 -0.1016,0.93733 -0.44873,1.28658 -0.36301,0.36442 -0.77258,0.524934 -1.22626,0.480484 -0.68826,-0.07232 -1.30245,-0.377825 -1.84396,-0.91687 l -1.48202,-1.476375 2.52483,-2.533297 z m -1.02835,10.587919 c -0.30833,0.614892 -0.50976,1.148998 -0.6036,1.601259 -0.1517,0.699911 -0.1517,1.4224 -0.001,2.167114 0.15134,0.744008 0.50129,1.497188 1.05269,2.258483 0.58208,0.805391 1.25024,1.407583 2.00483,1.807986 0.7553,0.399697 1.53,0.551744 2.32551,0.456847 0.79622,-0.09525 1.47426,-0.34678 2.03729,-0.753886 0.53376,-0.385586 0.96415,-0.88265 1.29117,-1.492956 0.32808,-0.609952 0.47061,-1.274938 0.43004,-1.995311 -0.0413,-0.720019 -0.28822,-1.64465 -0.74154,-2.772127 -0.45367,-1.127125 -0.65476,-1.890184 -0.60325,-2.288822 0.048,-0.403931 0.22648,-0.718256 0.53693,-0.942975 0.38805,-0.280812 0.82479,-0.373592 1.31127,-0.278342 0.48648,0.09596 0.90664,0.388055 1.26083,0.877711 0.28751,0.397933 0.44732,0.833261 0.47907,1.304925 0.031,0.472722 -0.0617,1.023761 -0.27764,1.653117 l 2.07469,1.291872 c 0.22966,-0.5207 0.37324,-0.979664 0.43321,-1.377245 0.0847,-0.608189 0.0505,-1.250597 -0.10195,-1.926872 -0.15275,-0.675922 -0.46814,-1.34373 -0.94545,-2.003425 -0.83784,-1.15958 -1.80445,-1.849261 -2.89842,-2.0701 -1.09502,-0.221191 -2.10961,0.0078 -3.04588,0.684742 -0.87277,0.630767 -1.36455,1.493661 -1.47602,2.585861 -0.085,0.873478 0.15734,2.046817 0.72778,3.518605 0.4131,1.082323 0.5842,1.849262 0.51117,2.300464 -0.0765,0.446617 -0.2861,0.794456 -0.63041,1.044222 -0.393,0.283634 -0.85161,0.367242 -1.37478,0.251178 -0.52317,-0.116064 -0.99624,-0.465666 -1.41746,-1.047397 -0.35031,-0.485422 -0.54363,-0.986719 -0.57785,-1.504244 -0.0353,-0.517878 0.0977,-1.166284 0.39935,-1.94557 z" />
    <path
       inkscape:connector-curvature="0"
       id="path871"
       style="fill:#68b1b2;fill-opacity:1;fill-rule:nonzero;stroke:none"
       d="m 3.5718999,39.442519 0.8180916,-0.863247 -4.14196375,-3.925711 5.20453045,2.804583 0.4572,-0.482953 -3.0801027,-5.046839 4.1430221,3.925359 0.8269111,-0.873125 -4.6538443,-4.40937 -1.3768917,1.453445 2.1438305,3.513314 L 0.29529997,33.579 -1.0815917,35.03315 Z m 4.887736,-5.04825 0.9510889,-0.8636 -0.6759222,-1.491192 1.5712724,-1.426986 1.420989,0.814564 L 12.6778,30.56275 6.6128443,27.100941 5.5873193,28.03298 Z m 0.9644944,-4.287661 -1.1186583,1.016 -0.9948333,-2.228144 z m 3.9027807,-0.04904 1.093611,-0.853722 -1.240367,-1.587853 0.02787,-1.6891 3.480505,1.50495 1.0668,-0.833261 -4.527197,-1.951214 0.05715,-3.505553 -1.201561,0.938742 -0.08326,4.024136 -1.920875,-2.458861 -1.0936107,0.853722 z m 5.156552,-3.961694 3.98145,-2.662414 -0.684389,-1.025525 -2.814461,1.882069 -1.131358,-1.692275 1.715206,-1.14688 -0.589139,-0.881945 -1.715206,1.147586 -0.874889,-1.3081 2.814109,-1.882069 -0.690386,-1.031875 -3.982509,2.662767 z m 7.954434,-5.068359 2.858911,-1.488369 c 0.515055,-0.268111 0.894997,-0.575733 1.139119,-0.922161 0.244475,-0.347486 0.37077,-0.698147 0.379942,-1.053747 0.0088,-0.355248 -0.06279,-0.681214 -0.216606,-0.975078 -0.131233,-0.251883 -0.319969,-0.467431 -0.566914,-0.644878 -0.246944,-0.177094 -0.523875,-0.289983 -0.830439,-0.339019 -0.220133,-0.03669 -0.505883,-0.02117 -0.855838,0.04586 0.288925,-0.309033 0.476955,-0.604661 0.564091,-0.887589 0.128059,-0.422628 0.08643,-0.838553 -0.125941,-1.247069 -0.282928,-0.543631 -0.729545,-0.840317 -1.337734,-0.890059 -0.425097,-0.03422 -0.965905,0.118886 -1.62313,0.460728 L 23.054405,14.529 Z M 26.166963,14.1607 c 0.345017,-0.179564 0.635706,-0.2413 0.870656,-0.183797 0.23495,0.05821 0.412397,0.201083 0.531636,0.430389 0.121003,0.232128 0.142169,0.443089 0.06385,0.631119 -0.12065,0.293159 -0.326673,0.516114 -0.61842,0.667809 l -1.363133,0.710141 -0.814211,-1.563158 z m 1.297517,2.585508 c 0.390525,-0.203552 0.735189,-0.267405 1.033639,-0.192616 0.297744,0.07549 0.518583,0.250119 0.661458,0.524933 0.15487,0.296686 0.167922,0.595489 0.03986,0.894997 -0.128764,0.299156 -0.457906,0.585964 -0.987778,0.861836 l -1.023761,0.533048 -1.014941,-1.950156 z m 3.736269,-6.406797 c -0.278341,0.290336 -0.486833,0.62477 -0.625827,1.004359 -0.1397,0.379589 -0.203553,0.751769 -0.193323,1.116541 0.01305,0.661459 0.172509,1.345495 0.478367,2.052461 0.507647,1.175809 1.176867,1.947686 2.008011,2.314928 0.831144,0.366889 1.706033,0.352425 2.624667,-0.0448 0.909814,-0.392994 1.512005,-1.009297 1.804811,-1.849966 0.293511,-0.840317 0.186972,-1.846792 -0.320323,-3.019425 C 36.604246,11.0492 36.165038,10.410672 35.65986,9.9968641 35.155388,9.5837613 34.579655,9.347753 33.934777,9.2898974 33.441594,9.2443891 32.868683,9.3629224 32.215691,9.6447919 31.816699,9.817653 31.478385,10.049075 31.200749,10.339411 m 2.939697,0.410634 c 0.537634,0.223661 1.010356,0.806802 1.417462,1.749425 0.363713,0.843844 0.47378,1.516591 0.328436,2.018594 -0.145345,0.50165 -0.447675,0.851958 -0.907345,1.050572 -0.483305,0.208845 -0.960261,0.194028 -1.430866,-0.04374 -0.470253,-0.23742 -0.889,-0.781756 -1.255537,-1.631245 -0.373591,-0.864305 -0.488597,-1.549752 -0.345369,-2.055989 0.143581,-0.506588 0.449439,-0.861483 0.917928,-1.063977 0.434975,-0.186972 0.860425,-0.195439 1.275291,-0.02364 m 5.465586,4.200172 1.456973,-0.48895 -0.996245,-2.966156 1.328914,-0.445911 2.233083,2.550936 1.438628,-0.482953 -2.414411,-2.79153 C 43.09183,9.9499447 43.366291,9.582703 43.475652,9.2260447 43.58466,8.8690336 43.565257,8.4703947 43.417091,8.0304808 43.256224,7.5510558 42.999755,7.1647642 42.64733,6.8716058 42.294905,6.5788003 41.886741,6.4200503 41.422838,6.3974725 40.958935,6.3741892 40.191291,6.5421114 39.120257,6.9012392 l -1.991783,0.6695722 z m 0.573617,-6.970889 c 0.482247,-0.1626305 0.8636,-0.1890889 1.143,-0.081139 0.279753,0.1090084 0.465667,0.2991556 0.557389,0.5729111 0.09596,0.2861028 0.07267,0.5422195 -0.0695,0.7690556 -0.21837,0.3411361 -0.539397,0.5838472 -0.963436,0.7263694 l -1.162756,0.3901718 -0.66675,-1.9875495 z m 6.1722,4.764617 1.536347,-0.37712 -0.766939,-3.1284331 1.401586,-0.3436056 2.071511,2.8088167 1.516592,-0.371828 -2.235905,-3.0702248 c 0.4826,-0.3485444 0.794808,-0.7009694 0.937683,-1.0579805 0.142169,-0.3566583 0.157339,-0.7672916 0.04304,-1.2315472 C 50.731938,5.4657864 50.501574,5.0480975 50.165729,4.717192 49.829179,4.3859337 49.423838,4.1883781 48.949704,4.1259364 48.475571,4.0617309 47.674413,4.1682698 46.544818,4.4452003 L 44.44438,4.9599031 Z m 1.187097,-7.1024753 c 0.508706,-0.1245305 0.902053,-0.1199444 1.179336,0.015169 0.277636,0.1354667 0.451909,0.3467805 0.522817,0.6346472 0.07373,0.3026833 0.02822,0.5640917 -0.137583,0.7838722 -0.252589,0.3312583 -0.602898,0.55245 -1.050925,0.6618111 L 46.826688,8.0382419 46.313043,5.9420364 Z m 6.284383,-2.9153554 c -0.37218,0.2317749 -0.683683,0.5291666 -0.933097,0.8925277 -0.250119,0.3626556 -0.418747,0.7387167 -0.506236,1.127125 -0.1651,0.7023805 -0.182033,1.4686138 -0.0508,2.2986999 0.218722,1.3804195 0.717197,2.3763111 1.495425,2.9901441 0.778933,0.612775 1.707797,0.83432 2.786239,0.663223 1.067505,-0.168628 1.87078,-0.657931 2.408414,-1.4661449 0.53728,-0.8085666 0.697089,-1.9014722 0.479072,-3.278011 C 59.341832,4.9397948 59.05079,4.1453392 58.628868,3.5720753 58.207299,2.9991642 57.663668,2.5945281 56.997271,2.3571087 56.488565,2.1761337 55.851096,2.1461476 55.084863,2.2678559 c -0.468489,0.074083 -0.889,0.2268361 -1.261534,0.4582584 m 2.995789,1.2308416 c 0.507647,0.3813528 0.849136,1.1253611 1.024114,2.2320249 0.156633,0.9895417 0.08996,1.7307278 -0.199672,2.2214417 -0.288925,0.4914194 -0.703439,0.7799916 -1.242836,0.8650111 -0.56762,0.089958 -1.067859,-0.054328 -1.500364,-0.4332111 -0.432858,-0.3781778 -0.727781,-1.0664472 -0.885825,-2.0633972 -0.160161,-1.0145889 -0.09631,-1.7702389 0.192264,-2.26695 0.288925,-0.4967111 0.708378,-0.7884583 1.258005,-0.8752416 0.51047,-0.081492 0.962378,0.026458 1.354314,0.3203222 m 5.739694,5.7753249 1.278467,-0.078317 1.144058,-6.4441915 1.895123,6.2579248 1.284111,-0.078317 1.459794,-8.44056095 -1.57233,0.0970138 -0.826912,4.8697444 -1.441802,-4.7300444 -1.865489,0.1135945 -0.849136,4.8330554 -1.425928,-4.6937082 -1.565628,0.096308 z m 8.537575,-0.3993445 5.831417,0.2042584 0.05151,-1.5007167 -4.119386,-0.1442861 0.08608,-2.4782638 2.512131,0.088547 0.04551,-1.2904611 -2.512131,-0.088194 0.06668,-1.9148778 4.12115,0.1435806 0.05256,-1.51129997 -5.831063,-0.20425833 z m 7.1882,0.3125611 1.73355,0.187325 0.383117,-3.5316582 1.58115,0.17145 1.091847,3.6911138 1.71203,0.185208 -1.163813,-4.0244885 C 84.253587,6.1448836 84.710787,5.8968809 84.993362,5.580792 85.274526,5.2643503 85.444212,4.8448975 85.501009,4.3196114 85.563451,3.7491698 85.481959,3.2295281 85.25724,2.7592754 85.033226,2.2897282 84.687151,1.9330698 84.220073,1.6878893 83.752643,1.4444726 82.881634,1.2529143 81.606695,1.115331 L 79.234618,0.85886152 Z m 3.902428,-6.9162081 c 0.573969,0.062089 0.980369,0.2155472 1.217083,0.4600222 0.236361,0.2448277 0.337961,0.5298722 0.302331,0.8544277 -0.03704,0.3411361 -0.182034,0.5951361 -0.436386,0.7605889 -0.386998,0.2487083 -0.833967,0.346075 -1.339145,0.2917472 L 80.547304,4.945792 80.803068,2.5797115 Z m 3.704166,5.9270193 c 0.125942,0.4321527 0.268112,0.7761111 0.424392,1.0346972 0.240242,0.4011082 0.561975,0.7464782 0.966258,1.0343442 0.403931,0.288572 0.906992,0.49142 1.509889,0.609953 0.636764,0.124531 1.224845,0.113594 1.763536,-0.03104 0.539045,-0.14605 0.976136,-0.4191 1.314098,-0.818798 0.337608,-0.400402 0.549627,-0.823383 0.636763,-1.267883 0.08326,-0.422275 0.06632,-0.8519583 -0.04904,-1.28905 C 92.341017,7.4910836 92.11277,7.1097308 91.772692,6.7841169 91.431909,6.4585031 90.901684,6.1272447 90.182017,5.7910475 89.462351,5.4552031 89.027023,5.1803892 88.873565,4.9666059 88.715873,4.7524698 88.661192,4.5228114 88.709523,4.2769253 c 0.05997,-0.3069166 0.227542,-0.5464527 0.50165,-0.7168444 0.275519,-0.1718028 0.606072,-0.2197805 0.993775,-0.1439333 0.314678,0.062089 0.585611,0.1982611 0.810683,0.4102805 0.225425,0.2113139 0.427214,0.5161139 0.604309,0.9133417 L 93.186626,4.4310892 C 93.063859,4.0800753 92.928392,3.796442 92.780226,3.5798365 92.548451,3.2517531 92.24612,2.9600059 91.87147,2.7056531 91.497526,2.4509476 91.048792,2.272442 90.527034,2.1701365 89.609106,1.9905726 88.841109,2.0921726 88.22022,2.4745837 87.598626,2.8573476 87.215509,3.418617 87.07087,4.1590976 c -0.135466,0.6907388 0.01411,1.3225638 0.448381,1.893711 0.348544,0.4547306 0.987425,0.9066389 1.915583,1.3550194 0.680508,0.3326695 1.104195,0.6230056 1.270706,0.8703028 0.162983,0.2472972 0.218016,0.5072944 0.164041,0.7799916 -0.06068,0.3107973 -0.242005,0.555625 -0.543983,0.733425 -0.301272,0.1778 -0.683331,0.2215446 -1.144411,0.1315861 C 88.79807,9.8479919 88.481981,9.6945335 88.235742,9.4631113 87.98774,9.2313363 87.761962,8.861978 87.558056,8.3553891 Z" />
  </g>
</svg>
